<?xml version="1.0" standalone="no"?>
<!DOCTYPE svg PUBLIC "-//W3C//DTD SVG 20010904//EN"
 "http://www.w3.org/TR/2001/REC-SVG-20010904/DTD/svg10.dtd">
<svg version="1.0" xmlns="http://www.w3.org/2000/svg"
 width="1200.000000pt" height="1200.000000pt" viewBox="0 0 1200.000000 1200.000000"
 preserveAspectRatio="xMidYMid meet">
<metadata>
Created by potrace 1.14, written by Peter Selinger 2001-2017
</metadata>
<g transform="translate(0.000000,1200.000000) scale(0.100000,-0.100000)"
fill="#000000" stroke="none">
<path d="M3653 11975 c-100 -46 -149 -155 -118 -262 29 -99 101 -151 226 -164
100 -10 181 -45 209 -91 20 -33 20 -47 20 -1023 l0 -990 -633 0 c-592 -1 -634
-2 -667 -19 -49 -26 -88 -64 -113 -111 -20 -39 -21 -52 -21 -582 0 -299 -3
-544 -6 -544 -3 -1 -322 -2 -710 -3 -644 -2 -708 -4 -745 -20 -179 -77 -185
-315 -10 -409 40 -22 44 -22 720 -24 374 -1 696 -2 715 -3 l36 0 -1 -397 0
-398 -997 0 -997 0 -32 30 c-45 43 -68 102 -80 202 -13 120 -58 186 -148 218
-76 27 -141 16 -213 -34 -63 -45 -83 -92 -82 -196 0 -49 3 -103 7 -120 3 -16
9 -42 12 -58 12 -60 75 -198 101 -225 8 -7 14 -17 14 -22 0 -13 106 -116 154
-149 25 -17 64 -40 88 -50 107 -45 99 -45 1158 -47 553 -1 1007 -2 1010 -3 3
0 5 -179 5 -396 l0 -395 -60 0 c-33 -1 -349 -1 -703 -1 -686 0 -684 0 -751
-50 -46 -34 -83 -111 -83 -173 -1 -99 66 -192 157 -218 28 -7 257 -11 738 -11
383 0 698 -3 698 -6 1 -3 2 -183 3 -398 l1 -393 -1000 -1 c-550 0 -1009 -2
-1020 -3 -78 -11 -109 -20 -174 -53 -85 -43 -165 -112 -227 -195 -41 -56 -97
-176 -109 -233 -3 -17 -9 -43 -13 -60 -4 -16 -7 -70 -7 -120 0 -101 11 -131
70 -186 87 -82 222 -79 309 7 43 44 57 78 66 169 10 99 45 176 93 205 31 19
56 20 1022 20 l990 0 0 -633 1 -632 28 -52 c31 -56 80 -96 138 -111 21 -6 248
-9 565 -8 l530 1 0 -700 c0 -509 4 -712 12 -743 7 -25 28 -60 50 -83 112 -115
287 -88 364 56 22 40 22 44 23 748 0 389 3 709 6 712 4 4 529 8 733 6 l60 -1
0 -989 c0 -988 0 -990 -21 -1018 -39 -53 -109 -80 -255 -98 -207 -26 -257
-309 -74 -417 76 -44 287 -23 433 44 201 92 332 259 360 458 4 30 7 497 7
1038 -1 877 1 982 15 983 8 0 187 1 397 2 l383 2 0 -40 c1 -22 1 -337 1 -700
-1 -721 -1 -716 57 -782 92 -103 257 -99 342 10 51 65 50 46 50 802 l0 705 28
1 c111 3 764 0 767 -3 3 -3 5 -456 5 -1009 1 -663 4 -1021 11 -1054 35 -163
159 -314 334 -404 132 -67 349 -98 432 -61 83 37 134 113 135 202 1 132 -93
220 -246 232 -85 6 -169 45 -197 90 -18 30 -19 64 -19 1019 0 933 1 987 18
987 9 0 289 1 622 2 666 1 658 0 722 62 75 73 72 49 74 646 1 294 3 540 3 546
1 8 201 11 699 11 506 0 709 4 740 12 28 8 59 28 87 57 110 111 79 290 -63
361 -35 17 -79 18 -717 20 -374 1 -696 2 -715 3 l-35 0 2 387 c0 214 2 393 2
399 1 8 265 12 989 12 981 1 987 0 1018 -20 54 -37 83 -109 97 -243 9 -80 51
-141 121 -177 87 -44 185 -28 257 42 58 58 73 109 65 218 -20 254 -149 463
-356 573 -100 54 -67 53 -1163 54 -559 1 -1020 5 -1024 9 -8 8 -10 764 -2 777
3 5 307 9 707 9 456 0 712 4 730 11 117 44 180 170 142 285 -19 56 -48 92
-100 122 l-45 27 -720 3 -720 3 1 394 c0 217 3 397 5 400 3 3 459 5 1014 5
698 0 1022 4 1054 11 137 33 270 130 356 260 81 120 130 296 121 431 -9 147
-144 243 -283 203 -99 -29 -151 -101 -164 -227 -10 -98 -46 -181 -93 -209 -30
-18 -64 -19 -1021 -19 l-990 0 0 633 0 632 -22 40 c-32 58 -54 80 -104 106
l-44 23 -542 1 c-352 0 -544 4 -546 10 -2 6 -4 318 -4 695 -1 377 -4 701 -7
720 -9 47 -52 107 -96 135 -131 82 -299 17 -339 -131 -6 -25 -10 -257 -10
-634 0 -327 -1 -640 -1 -695 l0 -100 -392 1 c-216 1 -396 2 -399 3 -3 0 -6
445 -6 989 0 957 0 988 19 1019 27 46 106 81 206 93 95 11 137 28 179 73 110
118 58 319 -95 363 -137 40 -382 -25 -529 -139 -107 -83 -172 -176 -209 -302
-16 -55 -18 -137 -19 -1075 -1 -558 -3 -1017 -4 -1020 0 -3 -179 -5 -396 -5
l-395 0 0 85 c-1 47 -2 369 -3 715 -2 577 -3 633 -19 665 -28 54 -61 88 -110
109 -115 52 -234 11 -291 -100 l-29 -56 0 -709 0 -709 -399 0 c-392 0 -399 0
-399 20 -1 11 -1 460 -1 997 -1 1084 0 1065 -66 1191 -102 195 -337 333 -583
343 -74 3 -93 0 -137 -21z m5343 -5974 l-1 -2996 -2996 -1 -2995 -1 0 2997 0
2997 2996 0 2996 0 0 -2996z"/>
<path d="M5877 7524 c-1 -1 -42 -5 -92 -8 -90 -6 -218 -20 -285 -32 -19 -4
-42 -8 -50 -9 -280 -51 -630 -187 -884 -343 -233 -143 -517 -384 -560 -475
-57 -121 7 -270 134 -312 95 -32 165 -7 277 96 216 201 472 366 718 462 85 34
297 101 347 111 13 2 43 9 68 14 25 6 70 14 100 18 30 3 66 9 80 11 14 3 115
7 225 8 381 7 637 -46 992 -202 230 -101 435 -239 643 -432 72 -67 116 -92
173 -99 90 -10 198 55 232 140 34 85 12 199 -49 251 -12 10 -41 37 -66 61 -99
92 -271 225 -405 314 -89 59 -323 189 -355 197 -3 1 -16 7 -30 12 -220 95
-509 176 -705 197 -27 3 -75 9 -105 12 -51 6 -397 13 -403 8z"/>
<path d="M5977 6694 c-1 -1 -52 -4 -113 -8 -61 -3 -149 -13 -195 -21 -46 -9
-93 -17 -104 -19 -37 -6 -176 -47 -242 -72 -118 -45 -286 -131 -389 -201 -129
-87 -158 -110 -259 -208 -70 -69 -84 -87 -94 -130 -37 -157 84 -302 241 -289
62 5 108 32 194 113 212 201 534 344 834 369 132 11 337 5 415 -12 302 -65
540 -188 750 -390 85 -82 186 -102 281 -55 108 52 155 186 104 297 -49 109
-359 344 -601 455 -179 83 -409 144 -613 163 -62 6 -205 12 -209 8z"/>
<path d="M5825 5863 c-110 -18 -231 -58 -333 -110 -138 -70 -276 -183 -315
-258 -28 -53 -29 -155 -3 -204 44 -82 138 -134 225 -126 39 4 136 46 143 62 9
22 111 94 178 127 235 113 511 74 712 -101 76 -65 115 -84 185 -84 161 -2 275
172 207 316 -56 118 -309 289 -519 349 -138 40 -340 53 -480 29z"/>
<path d="M5873 5043 c-70 -34 -136 -108 -158 -178 -91 -290 252 -516 478 -314
88 78 121 187 92 299 -25 94 -76 153 -167 195 -75 34 -173 34 -245 -2z"/>
</g>
</svg>
